<svg xmlns="http://www.w3.org/2000/svg" viewBox="0 0 213.19 119.57"><defs><style>.cls-1{fill:#fff;}</style></defs><g id="Layer_2" data-name="Layer 2"><g id="Layer_1-2" data-name="Layer 1"><path class="cls-1" d="M45.91,109.22A17.88,17.88,0,0,1,42.09,98V7.64L42.15.52H0V4.24l.09,0A18.59,18.59,0,0,1,10,10.8a17.75,17.75,0,0,1,3.82,11.25V98A17.84,17.84,0,0,1,10,109.22a18.36,18.36,0,0,1-9.94,6.6l-.09,0v3.72H56.08v-3.72l-.09,0A18.39,18.39,0,0,1,45.91,109.22Z"/><path class="cls-1" d="M74.2,2.36C68,.32,60.52-.33,50.63.34h-.11V.47c0,.59,0,1.45,0,1.45l.08,0C63,6.25,71.12,20.09,71.26,35.66S63.47,64.42,51.07,69L51,69v.08l0,.53c0,.22,0,.45-.05.67v.14H51l3.5,0c1.29,0,2.63,0,4,0,7.73,0,16.3-.54,21.77-4.77,15.39-10,18.06-32.84,10.89-47.94C87.91,10.09,82.35,5.06,74.2,2.36Z"/><path class="cls-1" d="M110.3,18.63A10.74,10.74,0,0,1,110,8.68h0a12.2,12.2,0,0,1,7.51-6.39l.08,0V0H76.64V.24C84.38,1.8,93.58,4.88,97.92,18.09a61.5,61.5,0,0,1,2.8,19.84A45.21,45.21,0,0,1,97,56.35l0,.06,39.22,62.22L152.83,86.8Z"/><path class="cls-1" d="M176.53,0V1.83A12.08,12.08,0,0,1,184.14,8a11.22,11.22,0,0,1,0,10.07L176,34.1l2.94,4.75,10-19.18c5.23-9.38,13.39-15.39,24.26-17.89V0Z"/></g></g></svg>