<svg xmlns="http://www.w3.org/2000/svg" viewBox="0 0 215.49 168.58"><defs><style>.cls-1{fill:#fff;}</style></defs><g id="Layer_2" data-name="Layer 2"><g id="Layer_1-2" data-name="Layer 1"><path class="cls-1" d="M3.17,145.26H1.53V133.05H7a3.34,3.34,0,0,1,3.62,3.44A3.4,3.4,0,0,1,7,140.11H3.17Zm0-6.56H6.46c1.47,0,2.48-.55,2.48-2.2s-1.06-2-2.42-2H3.17Z"/><path class="cls-1" d="M30.58,133.05V141c0,2.5-1.57,4.61-4.92,4.61S21,143.47,21,141.19v-8.14h1.65v7.69c0,2.65,1.62,3.38,3.09,3.38s3.22-.7,3.22-3.35v-7.72Z"/><path class="cls-1" d="M43.28,145.26H41.63V133.05h5.64c2,0,4,.7,4,3.28a3,3,0,0,1-1.7,2.93c.7.29,1.4.59,1.46,2.29l.11,2.21c0,.68.1.94.61,1.22v.28h-2a14.84,14.84,0,0,1-.29-3.06c0-1-.21-2.18-2.18-2.18h-4Zm0-6.65H47.1c1.21,0,2.48-.31,2.48-2.11s-1.37-2-2.19-2H43.28Z"/><path class="cls-1" d="M71.1,145.26h-9V133.05H71v1.46H63.74v3.74h6.68v1.47H63.74v4.07H71.1Z"/><path class="cls-1" d="M101.45,133.05h1.85l-4.45,12.21H97.1l-4.46-12.21h1.84L98,143.45h0Z"/><path class="cls-1" d="M115.07,145.26h-1.65V133.05h1.65Z"/><path class="cls-1" d="M134.21,133.05h1.6v12.21H134l-6.2-9.86h0v9.86h-1.6V133.05h1.95l6.1,9.86h0Z"/><path class="cls-1" d="M145.57,133.05h9.91v1.46h-4.14v10.75H149.7V134.51h-4.13Z"/><path class="cls-1" d="M165.12,141.7l-1.28,3.56h-1.7l4.59-12.21h1.87L173,145.26h-1.8L170,141.7Zm4.3-1.46-1.81-5.37h0l-2,5.37Z"/><path class="cls-1" d="M187.57,138.73h5.36v6.53h-1.08l-.39-1.58a5,5,0,0,1-4,1.9,4.87,4.87,0,0,1-3.74-1.38,6.54,6.54,0,0,1-1.93-5.15c0-3,1.81-6.32,5.78-6.32,2.28,0,4.82,1.29,5.17,4h-1.6a3.4,3.4,0,0,0-3.65-2.57c-2.19,0-4,1.75-4,4.95,0,2.48.82,5,4.07,5a3.92,3.92,0,0,0,2.5-.78,3.76,3.76,0,0,0,1.34-3.25h-3.81Z"/><path class="cls-1" d="M212.88,145.26h-9V133.05h8.88v1.46h-7.24v3.74h6.68v1.47h-6.68v4.07h7.36Z"/><path class="cls-1" d="M44.42,159.72A3.18,3.18,0,0,0,41,157.19c-2.21,0-4,1.63-4,4.85,0,2.87,1,5.08,4,5.08,1.07,0,2.92-.51,3.49-3.35h1.59a5.15,5.15,0,0,1-5.33,4.81c-2.77,0-5.49-1.8-5.49-6.49,0-3.76,2.14-6.36,5.69-6.36,3.14,0,4.78,2,5,4Z"/><path class="cls-1" d="M58,166.8h6.19v1.46H56.35V156.05H58Z"/><path class="cls-1" d="M79.35,168.58c-4.55,0-5.95-3.79-5.95-6.43s1.4-6.42,5.95-6.42,6,3.79,6,6.42S83.91,168.58,79.35,168.58Zm0-11.39c-2.65,0-4.25,2.09-4.25,5s1.6,5,4.25,5,4.25-2.09,4.25-5S82,157.19,79.35,157.19Z"/><path class="cls-1" d="M93.75,156.05h9.91v1.46H99.53v10.75H97.88V157.51H93.75Z"/><path class="cls-1" d="M121.46,156.05h1.65v12.21h-1.65v-5.7h-6.37v5.7h-1.65V156.05h1.65v5h6.37Z"/><path class="cls-1" d="M135.83,168.26h-1.65V156.05h1.65Z"/><path class="cls-1" d="M155,156.05h1.59v12.21h-1.85l-6.2-9.86h0v9.86h-1.59V156.05h2l6.1,9.86h0Z"/><path class="cls-1" d="M172.7,161.73h5.35v6.53H177l-.39-1.58a5,5,0,0,1-4,1.9,4.87,4.87,0,0,1-3.74-1.38,6.51,6.51,0,0,1-1.92-5.15c0-3,1.8-6.32,5.78-6.32,2.28,0,4.81,1.29,5.17,4h-1.6a3.4,3.4,0,0,0-3.65-2.57c-2.2,0-4,1.75-4,4.95,0,2.48.82,5,4.06,5a3.89,3.89,0,0,0,2.5-.78,3.76,3.76,0,0,0,1.35-3.25H172.7Z"/><path class="cls-1" d="M48.19,109.22A17.82,17.82,0,0,1,44.37,98V7.64L44.42.52H2.28V4.24l.09,0a18.59,18.59,0,0,1,9.94,6.54,17.8,17.8,0,0,1,3.82,11.25V98a17.9,17.9,0,0,1-3.82,11.19,18.36,18.36,0,0,1-9.94,6.6l-.09,0v3.72H58.36v-3.72l-.09,0A18.32,18.32,0,0,1,48.19,109.22Z"/><path class="cls-1" d="M76.47,2.36C70.28.32,62.8-.33,52.91.34H52.8V.47c0,.59,0,1.45,0,1.45l.09,0C65.31,6.25,73.4,20.09,73.54,35.66S65.75,64.42,53.35,69l-.08,0v.08c0,.17,0,.35,0,.53s0,.45,0,.67v.14h.13l3.51,0c1.29,0,2.63,0,4,0,7.73,0,16.29-.54,21.77-4.77,15.39-10,18-32.84,10.89-47.94C90.18,10.09,84.63,5.06,76.47,2.36Z"/><path class="cls-1" d="M112.58,18.63a10.74,10.74,0,0,1-.35-9.95h0a12.17,12.17,0,0,1,7.51-6.39l.08,0V0H78.92V.24C86.65,1.8,95.86,4.88,100.2,18.09A61.5,61.5,0,0,1,103,37.93a45.21,45.21,0,0,1-3.72,18.42l0,.06,39.22,62.22L155.11,86.8C146.7,73.34,113,19.25,112.58,18.63Z"/><path class="cls-1" d="M178.8,0V1.83A12.05,12.05,0,0,1,186.41,8a11.19,11.19,0,0,1,0,10.07L178.24,34.1l2.94,4.75,10-19.18c5.23-9.38,13.38-15.39,24.26-17.89V0Z"/><rect class="cls-1" y="162.79" width="24.17" height="1"/><rect class="cls-1" x="191.31" y="162.79" width="24.17" height="1"/></g></g></svg>